<svg width="760" height="620" viewBox="0 0 760 620" fill="none" xmlns="http://www.w3.org/2000/svg">
  <rect width="760" height="620" rx="40" fill="#082B7A"/>
  <circle cx="630" cy="128" r="120" fill="#3FD6FF" fill-opacity="0.18"/>
  <circle cx="118" cy="528" r="142" fill="#0D47C7" fill-opacity="0.22"/>
  <rect x="82" y="92" width="596" height="408" rx="34" fill="white" fill-opacity="0.93"/>
  <rect x="128" y="138" width="240" height="22" rx="11" fill="#082B7A" fill-opacity="0.16"/>
  <g stroke="#0D47C7" stroke-width="12" stroke-linecap="round">
    <path d="M146 230H308"/>
    <path d="M452 230H614"/>
    <path d="M146 340H308"/>
    <path d="M452 340H614"/>
  </g>
  <g stroke="#082B7A" stroke-width="10">
    <circle cx="170" cy="230" r="32"/>
    <circle cx="284" cy="230" r="32"/>
    <circle cx="476" cy="230" r="32"/>
    <circle cx="590" cy="230" r="32"/>
    <circle cx="170" cy="340" r="32"/>
    <circle cx="284" cy="340" r="32"/>
    <circle cx="476" cy="340" r="32"/>
    <circle cx="590" cy="340" r="32"/>
  </g>
  <rect x="130" y="428" width="500" height="18" rx="9" fill="#3FD6FF" fill-opacity="0.25"/>
  <rect x="130" y="462" width="326" height="16" rx="8" fill="#0D47C7" fill-opacity="0.18"/>
</svg>
