<svg width="760" height="620" viewBox="0 0 760 620" fill="none" xmlns="http://www.w3.org/2000/svg">
  <rect width="760" height="620" rx="40" fill="url(#bg)"/>
  <rect x="82" y="86" width="596" height="390" rx="32" fill="white" fill-opacity="0.9"/>
  <rect x="126" y="132" width="220" height="24" rx="12" fill="#082B7A" fill-opacity="0.16"/>
  <rect x="126" y="194" width="192" height="184" rx="30" fill="#F5FAFF"/>
  <circle cx="222" cy="250" r="44" fill="#0D47C7"/>
  <path d="M150 378C166 328 190 304 222 304C254 304 278 328 294 378" fill="#082B7A" fill-opacity="0.18"/>
  <rect x="370" y="194" width="230" height="184" rx="30" fill="#F5FAFF"/>
  <path d="M407 286C429 252 455 235 486 235C517 235 543 252 565 286C543 320 517 337 486 337C455 337 429 320 407 286Z" fill="#F5FAFF"/>
  <circle cx="486" cy="286" r="36" fill="#0D47C7"/>
  <circle cx="486" cy="286" r="17" fill="#082B7A"/>
  <rect x="126" y="424" width="474" height="18" rx="9" fill="#0D47C7" fill-opacity="0.18"/>
  <rect x="126" y="458" width="328" height="16" rx="8" fill="#3FD6FF" fill-opacity="0.25"/>
  <circle cx="642" cy="100" r="92" fill="#3FD6FF" fill-opacity="0.16"/>
  <defs>
    <linearGradient id="bg" x1="0" y1="0" x2="760" y2="620" gradientUnits="userSpaceOnUse">
      <stop stop-color="#FFFFFF"/>
      <stop offset="0.58" stop-color="#F5FAFF"/>
      <stop offset="1" stop-color="#E6FBFA"/>
    </linearGradient>
  </defs>
</svg>
