<svg width="920" height="620" viewBox="0 0 920 620" fill="none" xmlns="http://www.w3.org/2000/svg">
  <rect width="920" height="620" rx="44" fill="url(#bg)"/>
  <circle cx="760" cy="110" r="134" fill="#3FD6FF" fill-opacity="0.16"/>
  <circle cx="118" cy="540" r="150" fill="#0D47C7" fill-opacity="0.14"/>
  <rect x="112" y="156" width="696" height="322" rx="34" fill="white" fill-opacity="0.92"/>
  <rect x="158" y="206" width="604" height="72" rx="20" fill="#082B7A"/>
  <rect x="198" y="230" width="218" height="24" rx="12" fill="white" fill-opacity="0.9"/>
  <rect x="452" y="230" width="182" height="24" rx="12" fill="#3FD6FF" fill-opacity="0.9"/>
  <rect x="178" y="316" width="184" height="162" rx="24" fill="#F5FAFF"/>
  <rect x="400" y="316" width="342" height="162" rx="24" fill="#F5FAFF"/>
  <path d="M218 397H322" stroke="#0D47C7" stroke-width="20" stroke-linecap="round"/>
  <circle cx="236" cy="397" r="34" stroke="#082B7A" stroke-width="14"/>
  <circle cx="304" cy="397" r="34" stroke="#082B7A" stroke-width="14"/>
  <rect x="436" y="354" width="250" height="18" rx="9" fill="#082B7A" fill-opacity="0.16"/>
  <rect x="436" y="396" width="180" height="16" rx="8" fill="#0D47C7" fill-opacity="0.18"/>
  <rect x="436" y="432" width="226" height="16" rx="8" fill="#3FD6FF" fill-opacity="0.24"/>
  <path d="M108 508H812" stroke="#CDEBFF" stroke-width="24" stroke-linecap="round"/>
  <defs>
    <linearGradient id="bg" x1="0" y1="0" x2="920" y2="620" gradientUnits="userSpaceOnUse">
      <stop stop-color="#FFFFFF"/>
      <stop offset="0.54" stop-color="#F0FDFF"/>
      <stop offset="1" stop-color="#F5FAFF"/>
    </linearGradient>
  </defs>
</svg>
