<svg width="960" height="1040" viewBox="0 0 960 1040" fill="none" xmlns="http://www.w3.org/2000/svg">
  <rect width="960" height="1040" rx="40" fill="url(#bg)"/>
  <circle cx="723" cy="189" r="188" fill="#3FD6FF" fill-opacity="0.18"/>
  <circle cx="239" cy="801" r="246" fill="#0D47C7" fill-opacity="0.16"/>
  <path d="M147 703C203 606 316 542 472 542C628 542 757 607 813 704C757 805 628 868 472 868C316 868 203 805 147 703Z" fill="white" fill-opacity="0.96"/>
  <path d="M211 703C258 641 351 595 472 595C593 595 694 641 749 704C694 768 593 814 472 814C351 814 258 768 211 703Z" fill="#F5FAFF"/>
  <circle cx="472" cy="704" r="118" fill="#0D47C7"/>
  <circle cx="472" cy="704" r="64" fill="#082B7A"/>
  <circle cx="438" cy="664" r="28" fill="white" fill-opacity="0.82"/>
  <path d="M147 703C203 606 316 542 472 542C628 542 757 607 813 704C757 805 628 868 472 868C316 868 203 805 147 703Z" stroke="#082B7A" stroke-opacity="0.12" stroke-width="6"/>
  <rect x="113" y="106" width="342" height="226" rx="34" fill="white" fill-opacity="0.86"/>
  <rect x="151" y="150" width="198" height="20" rx="10" fill="#082B7A" fill-opacity="0.18"/>
  <rect x="151" y="193" width="254" height="16" rx="8" fill="#0D47C7" fill-opacity="0.2"/>
  <rect x="151" y="230" width="174" height="16" rx="8" fill="#3FD6FF" fill-opacity="0.28"/>
  <circle cx="702" cy="320" r="132" fill="white" fill-opacity="0.94"/>
  <path d="M637 320H767" stroke="#082B7A" stroke-width="20" stroke-linecap="round"/>
  <circle cx="637" cy="320" r="47" stroke="#0D47C7" stroke-width="18"/>
  <circle cx="767" cy="320" r="47" stroke="#0D47C7" stroke-width="18"/>
  <path d="M702 338V394" stroke="#082B7A" stroke-width="18" stroke-linecap="round"/>
  <path d="M313 388C388 350 557 351 633 389" stroke="#3FD6FF" stroke-width="18" stroke-linecap="round"/>
  <path d="M253 470C357 414 589 414 708 473" stroke="white" stroke-opacity="0.82" stroke-width="22" stroke-linecap="round"/>
  <defs>
    <linearGradient id="bg" x1="0" y1="0" x2="960" y2="1040" gradientUnits="userSpaceOnUse">
      <stop stop-color="#F5FAFF"/>
      <stop offset="0.52" stop-color="#F5FAFF"/>
      <stop offset="1" stop-color="#DFF7F6"/>
    </linearGradient>
  </defs>
</svg>
