<svg width="720" height="680" viewBox="0 0 720 680" fill="none" xmlns="http://www.w3.org/2000/svg">
  <rect width="720" height="680" rx="40" fill="url(#bg)"/>
  <circle cx="566" cy="138" r="128" fill="#3FD6FF" fill-opacity="0.18"/>
  <circle cx="143" cy="536" r="164" fill="#0D47C7" fill-opacity="0.16"/>
  <rect x="96" y="96" width="528" height="382" rx="34" fill="white" fill-opacity="0.92"/>
  <path d="M168 292C212 217 278 180 366 180C454 180 520 217 564 292C520 367 454 404 366 404C278 404 212 367 168 292Z" fill="#F5FAFF"/>
  <circle cx="366" cy="292" r="86" fill="#0D47C7"/>
  <circle cx="366" cy="292" r="43" fill="#082B7A"/>
  <circle cx="339" cy="263" r="17" fill="white" fill-opacity="0.88"/>
  <path d="M168 292C212 217 278 180 366 180C454 180 520 217 564 292C520 367 454 404 366 404C278 404 212 367 168 292Z" stroke="#082B7A" stroke-opacity="0.12" stroke-width="7"/>
  <rect x="132" y="132" width="142" height="16" rx="8" fill="#082B7A" fill-opacity="0.16"/>
  <rect x="132" y="508" width="456" height="76" rx="22" fill="white" fill-opacity="0.88"/>
  <circle cx="175" cy="546" r="19" fill="#3FD6FF" fill-opacity="0.22"/>
  <path d="M166 546L174 554L187 539" stroke="#3FD6FF" stroke-width="5" stroke-linecap="round" stroke-linejoin="round"/>
  <rect x="218" y="528" width="184" height="14" rx="7" fill="#082B7A" fill-opacity="0.16"/>
  <rect x="218" y="557" width="268" height="12" rx="6" fill="#0D47C7" fill-opacity="0.18"/>
  <path d="M500 438L598 536" stroke="#3FD6FF" stroke-width="28" stroke-linecap="round"/>
  <circle cx="482" cy="420" r="58" fill="white"/>
  <path d="M455 420H509M482 393V447" stroke="#0D47C7" stroke-width="15" stroke-linecap="round"/>
  <defs>
    <linearGradient id="bg" x1="0" y1="0" x2="720" y2="680" gradientUnits="userSpaceOnUse">
      <stop stop-color="#FFFFFF"/>
      <stop offset="0.54" stop-color="#F0FDFF"/>
      <stop offset="1" stop-color="#F5FAFF"/>
    </linearGradient>
  </defs>
</svg>
