<svg xmlns="http://www.w3.org/2000/svg" viewBox="0 0 64 64" role="img" aria-label="Blue Phoenix favicon">
  <defs>
    <linearGradient id="g" x1="10" x2="54" y1="8" y2="56" gradientUnits="userSpaceOnUse">
      <stop stop-color="#3FD6FF"/>
      <stop offset="1" stop-color="#082B7A"/>
    </linearGradient>
  </defs>
  <rect width="64" height="64" rx="18" fill="url(#g)"/>
  <path fill="#fff" d="M15 35c5.5-9 11.2-13.5 17-13.5S43.5 26 49 35c-5.5 6.3-11.2 9.5-17 9.5S20.5 41.3 15 35Zm17 5.5a8.5 8.5 0 1 0 0-17 8.5 8.5 0 0 0 0 17Zm0-4.8a3.7 3.7 0 1 1 0-7.4 3.7 3.7 0 0 1 0 7.4Z"/>
</svg>
